OpenSim_Sub01_EMGStiffKnee_GRF.mot
version=1
nRows=35
nColumns=19
inDegrees=no
endheader
time	lFx	lFy	lFz	lCOPx	lCOPy	lCOPz	rFx	rFy	rFz	rCOPx	rCOPy	rCOPz	lMx	lMy	lMz	rMx	rMy	rMz
0	6.06802089	327.72562380	22.74181309	0.77378176	0	-0.64131872	-7.88852497	319.89292804	-22.39943477	0.80956822	0	-0.34443287	0	-1.87499342	0	0	1.17542773	-0.00000000
0.01000000	6.09488157	327.85614505	22.78015529	0.77398502	0	-0.64126961	-5.31280040	319.88513748	-22.28114696	0.81197933	0	-0.34473749	0	-2.01749273	0	0	1.25420419	-0.00000000
0.02000000	6.14342567	328.01542160	22.80617509	0.77411197	0	-0.64132685	-3.94402981	320.16751685	-22.21543825	0.81322711	0	-0.34490660	0	-2.09977209	0	0	1.28903978	0
0.03000000	6.17893752	328.08847829	22.81522583	0.77416566	0	-0.64142911	-3.47876418	320.62282628	-22.19049017	0.81358793	0	-0.34498473	0	-2.12663004	0	0	1.28285755	0
0.04000000	6.15451731	328.01011336	22.81473224	0.77419196	0	-0.64148125	-3.43451407	321.08361465	-22.14273969	0.81354576	0	-0.34497467	0	-2.11554903	0	0	1.25649001	-0.00000000
0.05000000	6.07523691	327.86385885	22.80953507	0.77424093	0	-0.64145859	-3.52461235	321.30665028	-22.03798126	0.81347565	0	-0.34495358	0	-2.07446373	0	0	1.23232819	0
0.06000000	5.97358072	327.73005350	22.79661911	0.77432638	0	-0.64140468	-3.63455136	321.14514499	-21.89114410	0.81356864	0	-0.34498531	0	-2.02749570	0	0	1.21956829	0
0.07000000	5.89235053	327.69232925	22.78366905	0.77444300	0	-0.64136776	-3.73462501	320.63072888	-21.73591435	0.81369841	0	-0.34506613	0	-1.98690210	0	0	1.22306324	0
0.08000000	5.85690212	327.78251570	22.76631798	0.77463183	0	-0.64137571	-3.81926997	319.94128928	-21.58697708	0.81370426	0	-0.34514622	0	-1.95790754	0	0	1.24365867	0.00000000
0.09000000	5.84925168	327.88782864	22.76045774	0.77491283	0	-0.64139886	-3.85907299	319.26799957	-21.48633025	0.81359854	0	-0.34523298	0	-1.95320819	0	0	1.26429388	0
0.10000000	5.81846121	327.92841418	22.77364747	0.77521237	0	-0.64138747	-3.84355646	318.78981548	-21.43903291	0.81344132	0	-0.34532669	0	-1.95020705	0	0	1.28052631	0
0.11000000	5.74798234	327.93312747	22.80042026	0.77536995	0	-0.64136517	-3.79060517	318.66933399	-21.44236496	0.81331247	0	-0.34540439	0	-1.93803860	0	0	1.28485511	0.00000000
0.12000000	5.63418507	327.96619085	22.82453095	0.77537570	0	-0.64134412	-3.69567459	318.92366572	-21.48403347	0.81330084	0	-0.34543359	0	-1.91563468	0	0	1.27920183	0
0.13000000	5.47551814	328.08919081	22.82996368	0.77528247	0	-0.64132339	-3.60578590	319.37595185	-21.55623121	0.81337813	0	-0.34543174	0	-1.88788786	0	0	1.28541168	0
0.14000000	5.28861316	328.30837349	22.79703327	0.77520190	0	-0.64132510	-3.59314730	319.81203037	-21.64616389	0.81338255	0	-0.34543099	0	-1.86648366	0	0	1.31257002	0
0.15000000	5.11510098	328.55671913	22.73340052	0.77521415	0	-0.64136486	-3.65771951	319.98889358	-21.75087753	0.81322518	0	-0.34544493	0	-1.86681994	0	0	1.35393411	0
0.16000000	4.97937745	328.72693625	22.66703304	0.77524745	0	-0.64140180	-3.75536938	319.86312781	-21.84234764	0.81302125	0	-0.34544840	0	-1.87754380	0	0	1.40222277	0
0.17000000	4.89049065	328.76280291	22.60998441	0.77524092	0	-0.64139621	-3.85831776	319.60841775	-21.88310806	0.81287280	0	-0.34545059	0	-1.88151588	0	0	1.44375049	-0.00000000
0.18000000	4.85224700	328.68328762	22.56977510	0.77519577	0	-0.64136743	-3.95836099	319.39840762	-21.88477940	0.81271848	0	-0.34545103	0	-1.87282711	0	0	1.45549050	0.00000000
0.19000000	4.86805117	328.54889849	22.56302754	0.77510472	0	-0.64132282	-4.00191786	319.32921874	-21.86716179	0.81251977	0	-0.34546916	0	-1.85396766	0	0	1.44036783	0
0.20000000	4.91762385	328.38952681	22.57108455	0.77500995	0	-0.64127542	-3.96415570	319.43858599	-21.83089903	0.81226910	0	-0.34547597	0	-1.83328856	0	0	1.42090328	0
0.21000000	4.97515637	328.23260080	22.58447939	0.77491448	0	-0.64121285	-3.85655801	319.69616725	-21.78197688	0.81204981	0	-0.34545516	0	-1.81779850	0	0	1.40110273	0.00000000
0.22000000	5.02584767	328.17373188	22.58897775	0.77475200	0	-0.64113802	-3.71092292	319.99006506	-21.74588059	0.81194588	0	-0.34547010	0	-1.80342836	0	0	1.38072262	0
0.23000000	5.07645506	328.23218398	22.58307822	0.77447526	0	-0.64106988	-3.56561377	320.30009221	-21.73274492	0.81179667	0	-0.34551243	0	-1.78892913	0	0	1.37157622	-0.00000000
0.24000000	5.15236821	328.37519239	22.55822147	0.77410000	0	-0.64104365	-3.44447804	320.73881839	-21.73408520	0.81160903	0	-0.34555210	0	-1.78891395	0	0	1.35986099	-0.00000000
0.25000000	5.25651413	328.51403133	22.51247266	0.77370811	0	-0.64105832	-3.34135848	321.28686947	-21.75394648	0.81140250	0	-0.34557867	0	-1.79805976	0	0	1.34589810	0.00000000
0.26000000	5.39560877	328.55682563	22.47617579	0.77342509	0	-0.64105084	-3.26483068	321.78248741	-21.78004903	0.81121236	0	-0.34557599	0	-1.81526092	0	0	1.33738319	0
0.27000000	5.54805069	328.49020511	22.46586566	0.77325107	0	-0.64100035	-3.20310906	322.04764986	-21.77901761	0.81117800	0	-0.34555014	0	-1.82957474	0	0	1.32222450	0.00000000
0.28000000	5.69962457	328.33989914	22.47213131	0.77309794	0	-0.64092799	-3.15430759	322.04583061	-21.76607417	0.81124052	0	-0.34555250	0	-1.83818518	0	0	1.29097038	0.00000000
0.29000000	5.85163099	328.10929640	22.47465382	0.77290527	0	-0.64088056	-3.11123414	321.85153654	-21.76066305	0.81120077	0	-0.34560364	0	-1.84519895	0	0	1.26178882	-0.00000000
0.30000000	5.96401396	327.77740326	22.45643891	0.77268432	0	-0.64085712	-3.08570476	321.67709285	-21.74419950	0.81105541	0	-0.34564949	0	-1.85108176	0	0	1.23816413	0
0.31000000	6.01899114	327.39053853	22.42025853	0.77244901	0	-0.64083799	-3.08844889	321.67332517	-21.68198601	0.81084087	0	-0.34565085	0	-1.84452023	0	0	1.21349832	0
0.32000000	6.06100892	327.01453349	22.37594406	0.77223089	0	-0.64081716	-3.09997178	321.76583774	-21.59481845	0.81069374	0	-0.34566133	0	-1.83363243	0	0	1.17781936	-0.00000000
0.33000000	6.12909138	326.66953639	22.32847809	0.77192804	0	-0.64078535	-3.08018072	321.88370211	-21.52788402	0.81058888	0	-0.34570144	0	-1.81774393	0	0	1.13431335	-0.00000000
0.34000000	6.21617471	326.38008303	22.29253795	0.77154385	0	-0.64072223	-3.01128533	321.95223240	-21.51118611	0.81034747	0	-0.34574101	0	-1.79821101	0	0	1.09086533	0
